<?xml version="1.0" encoding="utf-8"?>
<!-- Generator: Adobe Illustrator 24.1.0, SVG Export Plug-In . SVG Version: 6.00 Build 0)  -->
<svg version="1.1" id="Livello_1" xmlns="http://www.w3.org/2000/svg" xmlns:xlink="http://www.w3.org/1999/xlink" x="0px" y="0px"
	 width="443.1373901px" height="96.3828964px" viewBox="0 0 443.1373901 96.3828964"
	 style="enable-background:new 0 0 443.1373901 96.3828964;" xml:space="preserve">
<style type="text/css">
	.st0{fill:#FFFFFF;}
	.st1{fill:#5AD275;}
</style>
<g>
	<g>
		<g>
			<g>
				<path class="st0" d="M34.5968666,44.2017288c0,9.377636-6.8768845,16.5201378-17.591507,16.5201378
					c-6.2541342,0-11.1677008-1.6043968-15.0081234-4.9979782c-0.8865944-0.8048401-3.3873584-3.5756836-0.9772125-6.612133
					c1.6923509-2.139183,4.8176351-2.3204193,6.6059246-0.6218414c2.857882,2.6766586,6.9665942,3.302948,9.3794117,3.302948
					c5.3586464,0,8.4848175-3.1252899,8.4848175-7.5911331c0-12.0525055-25.1835098-11.6074257-25.1835098-29.0203819
					C0.3066681,6.7000804,6.2898278,0,17.4477692,0c5.1774101,0,9.8227005,1.073158,13.662241,4.1993165
					c0.9860935,0.8039737,2.9467258,3.4841852,0.8954754,6.4282393c-1.4293842,2.0557117-4.1939907,2.499897-6.252346,1.0722637
					c-2.5851593-1.7856054-6.3349781-2.7672644-8.7477798-2.7672644c-5.3586473,0-7.5893459,2.5896063-7.5893459,6.2487926
					C9.4160137,25.4509048,34.5968666,25.0049572,34.5968666,44.2017288"/>
				<path class="st0" d="M52.8301277,36.6139832v19.1959038c0,2.503418-1.9686317,4.4658432-4.4658432,4.4658432
					c-2.5007629,0-4.4702759-1.9624252-4.4702759-4.4658432V5.3602324c0-2.502526,1.9695129-4.4649491,4.4702759-4.4649491
					h16.9625359c9.8200455,0,17.8615723,8.0370817,17.8615723,17.8597965s-8.0415268,17.8589039-17.8615723,17.8589039H52.8301277z
					 M52.8301277,9.8233929v17.8597965H65.153595c4.9073563,0,8.9272308-4.0172119,8.9272308-8.9281101
					c0-4.9135799-4.0198746-8.9316864-8.9272308-8.9316864H52.8301277z"/>
				<path class="st0" d="M207.9026794,0.8952834c16.7875366,0,30.3582764,12.6806107,30.3582764,29.4672508
					c0,16.7875061-13.5707397,29.4681168-30.3582764,29.4681168h-58.671524c-2.5007629,0-4.4693909-1.9668427-4.4693909-4.4658432
					V5.3602324c0-2.502526,1.9686279-4.4649491,4.4693909-4.4649491H207.9026794z M153.6978912,9.8233929V50.900753h54.2047882
					c12.4966888,0,21.2515869-8.8419533,21.2515869-20.5382195c0-11.6980591-8.7548981-20.5391407-21.2515869-20.5391407
					H153.6978912z"/>
				<path class="st0" d="M257.4654846,55.8095322c0,2.5034485-1.9597778,4.4658432-4.4631958,4.4658432
					s-4.4640503-1.9623947-4.4640503-4.4658432V4.9121437c0-2.4980803,1.9606323-4.4613705,4.4640503-4.4613705
					s4.4631958,1.9632905,4.4631958,4.4613705V55.8095322z"/>
				<path class="st0" d="M329.5223389,9.8233929V25.897583h16.0741577c2.5025024,0,4.4658203,1.9632912,4.4658203,4.4649506
					c0,2.4998703-1.9633179,4.4649467-4.4658203,4.4649467h-16.0741577V50.900753h21.4319153
					c2.503418,0,4.4640198,1.9650764,4.4640198,4.4640541c0,2.4990005-1.9606018,4.4658432-4.4640198,4.4658432h-25.8942261
					c-2.502533,0-4.4658203-1.9668427-4.4658203-4.4658432V5.3602324c0-2.502526,1.9632874-4.4649491,4.4658203-4.4649491
					h25.8942261c2.503418,0,4.4640198,1.9624228,4.4640198,4.4649491c0,2.5007644-1.9606018,4.4631605-4.4640198,4.4631605
					H329.5223389z"/>
				<path class="st0" d="M309.6897278,52.8995857l-12.2586365-17.6075058
					c6.532196-2.6606636,11.1739197-9.0782471,11.1739197-16.5370007c0-9.8227139-8.0415039-17.8597965-17.8642273-17.8597965
					h-16.9598694c-2.5034485,0-4.4702759,1.9624228-4.4702759,4.4649491v50.4496536
					c0,2.503418,1.9668274,4.4658432,4.4702759,4.4658432c2.4945374,0,4.4640808-1.9624252,4.4640808-4.4658432V36.6104317
					h8.8534546l15.0170288,21.5642853c0.8928223,1.2890396,2.3328552,1.9792862,3.79245,1.9792862
					c0.9070129,0,1.8282776-0.267395,2.6322327-0.8288345C310.6322937,57.8673592,311.146637,54.9925728,309.6897278,52.8995857
					 M278.2449951,9.8233929h12.3234253c4.9073792,0,8.9281616,4.0181065,8.9281616,8.9316864
					c0,4.9073448-4.0207825,8.9281101-8.9281616,8.9281101h-12.3234253V9.8233929z"/>
				<path class="st0" d="M104.0667877,34.8244438c-2.4989929,0-4.4685211-1.9606056-4.4685211-4.4613686
					c0-2.5025539,1.9695282-4.4658432,4.4685211-4.4658432h23.8207321c2.4972153,0,4.4623032,1.9632893,4.4623032,4.4658432
					c0,2.5007629-1.9650879,4.4613686-4.4623032,4.4613686H104.0667877z"/>
				<path class="st0" d="M95.3531189,9.8233929c-2.4989853,0-4.4685135-1.9623961-4.4685135-4.465817
					s1.9695282-4.4622927,4.4685135-4.4622927h32.5347824c2.4971848,0,4.4622726,1.9588714,4.4622726,4.4622927
					s-1.9650879,4.465817-4.4622726,4.465817H95.3531189z"/>
				<path class="st0" d="M95.3531189,59.8306503c-2.4989853,0-4.4685135-1.9632912-4.4685135-4.4658165
					c0-2.5034218,1.9695282-4.4613991,4.4685135-4.4613991h32.5347824c2.4971848,0,4.4622726,1.9579773,4.4622726,4.4613991
					c0,2.5025253-1.9650879,4.4658165-4.4622726,4.4658165H95.3531189z"/>
			</g>
		</g>
		<g>
			<path class="st0" d="M2.2830791,89.2778091H7.279582c0.5813079,0,1.0547848,0.472496,1.0547848,1.0763474
				c0,0.5803299-0.4734769,1.0332184-1.0547848,1.0332184H1.2057482C0.5175894,91.3873749,0,90.9129181,0,90.1384964V77.604599
				c0-0.6254272,0.4960232-1.1626205,1.0988973-1.1626205c0.6675727,0,1.1841818,0.5371933,1.1841818,1.1626205V89.2778091z"/>
			<path class="st0" d="M17.6647015,89.944397c-0.6675739,1.0979156-2.1321163,1.658638-3.3809967,1.658638
				c-2.7134237,0-5.1033535-2.0468292-5.1033535-5.2543106c0-3.2094498,2.3899298-5.2347183,5.1033535-5.2347183
				c1.206728,0,2.6918564,0.4960251,3.3809967,1.6370773v-0.4077988c0-0.6038513,0.4744568-1.1214447,1.0773296-1.1214447
				c0.6460075,0,1.1410503,0.5175934,1.1410503,1.1214447v8.0324402c0,0.6018906-0.4950428,1.1194839-1.1410503,1.1194839
				c-0.6028728,0-1.0773296-0.5175934-1.0773296-1.1194839V89.944397z M14.5424995,89.4483795
				c1.6360912,0,3.1006355-1.1410522,3.1006355-3.1212234c0-1.982132-1.5929604-3.0584869-3.1006355-3.0584869
				c-1.6802053,0-3.0800495,1.2057495-3.0800495,3.0584869C11.46245,88.1779327,12.8622942,89.4483795,14.5424995,89.4483795z"/>
			<path class="st0" d="M29.1320515,83.1608429h-0.991066c-0.4950428,0-0.9263668-0.3881912-0.9263668-0.8822556
				c0-0.5391541,0.431324-0.9489136,0.9263668-0.9489136h0.991066v-2.7996902c0-0.6018906,0.4734764-1.1194839,1.0763512-1.1194839
				c0.6460075,0,1.1410503,0.5175934,1.1410503,1.1194839v2.7996902h1.3145599c0.4950409,0,0.9253845,0.4097595,0.9253845,0.9489136
				c0,0.4940643-0.4303436,0.8822556-0.9253845,0.8822556H31.349453v7.2148819c0,0.6018906-0.4950428,1.1194839-1.1410503,1.1194839
				c-0.6028748,0-1.0763512-0.5175934-1.0763512-1.1194839V83.1608429z"/>
			<path class="st0" d="M44.4264297,90.3757248c0,0.6018906-0.4960251,1.1194839-1.1420326,1.1194839
				c-0.6028709,0-1.0763512-0.5175934-1.0763512-1.1194839v-0.4960251
				c-0.5813065,1.1626129-1.9595833,1.7233353-3.0800476,1.7233353c-2.4330635,0-3.8329086-1.5723724-3.8329086-4.4151917
				v-4.8445587c0-0.6038513,0.4950447-1.1214447,1.1410522-1.1214447c0.6028748,0,1.0773315,0.5175934,1.0773315,1.1214447v4.585762
				c0,1.5939407,0.8185349,2.4977646,2.1105499,2.4977646c1.3135757,0,2.5840225-0.7097244,2.5840225-2.6918564v-4.3916702
				c0-0.6038513,0.4950447-1.1214447,1.1410522-1.1214447c0.6028748,0,1.0773315,0.5175934,1.0773315,1.1214447V90.3757248z"/>
			<path class="st0" d="M55.3291359,89.944397c-0.667572,1.0979156-2.1321144,1.658638-3.3809967,1.658638
				c-2.7134209,0-5.1033516-2.0468292-5.1033516-5.2543106c0-3.2094498,2.3899307-5.2347183,5.1033516-5.2347183
				c1.2067299,0,2.6918564,0.4960251,3.3809967,1.6370773v-0.4077988c0-0.6038513,0.4744568-1.1214447,1.0773315-1.1214447
				c0.6460075,0,1.1410484,0.5175934,1.1410484,1.1214447v8.0324402c0,0.6018906-0.4950409,1.1194839-1.1410484,1.1194839
				c-0.6028748,0-1.0773315-0.5175934-1.0773315-1.1194839V89.944397z M52.2069359,89.4483795
				c1.6360931,0,3.1006355-1.1410522,3.1006355-3.1212234c0-1.982132-1.5929604-3.0584869-3.1006355-3.0584869
				c-1.6802063,0-3.0800514,1.2057495-3.0800514,3.0584869C49.1268845,88.1779327,50.5267296,89.4483795,52.2069359,89.4483795z"/>
			<path class="st0" d="M66.0651932,88.1132278c0.5381775-0.2136993,0.9469604,0.0647049,1.1194839,0.4313278
				c0.4097595,0.7744217,1.1841812,1.2057495,2.1752472,1.2057495c1.0126343,0,1.743927-0.4509354,1.743927-1.2057495
				c0-0.6450272-0.6244431-0.9253845-1.3567123-1.0979156l-1.3567123-0.323494
				c-2.1321106-0.5803299-2.9065399-1.7449036-2.7781219-3.3584518c0.1294022-1.4861069,1.7449036-2.6506882,3.5966568-2.6506882
				c1.3351517,0,2.5624619,0.4313278,3.2300339,1.4861145c0.3019257,0.5175858,0.1509628,1.0351791-0.1931152,1.2920074
				c-0.3666229,0.3019333-0.8185349,0.280365-1.2920151-0.1274338c-0.5607224-0.4960251-1.2067261-0.6901169-1.7233353-0.6901169
				c-0.5597382,0-1.1841812,0.1940918-1.3998413,0.5391541c-0.1725311,0.2783966-0.1940994,0.5587616-0.0862656,0.8606873
				c0.1293945,0.3881912,0.7322693,0.5822906,1.2704468,0.7312927l1.5508041,0.3881912
				c2.1752472,0.5391541,2.6271591,1.9605637,2.6271591,2.9722214c0,1.9389954-1.7007904,3.036911-4.0054321,3.036911
				c-1.5508118,0-3.1222076-0.8195114-3.6603775-2.2840576C65.3544922,88.7817841,65.5907364,88.285759,66.0651932,88.1132278z"/>
			<path class="st0" d="M77.7638931,82.8157806c0.6244431-1.0763474,2.0027161-1.7017746,3.3594284-1.7017746
				c2.7134247,0,4.9955292,2.0899658,4.9955292,5.256279c0,3.207489-2.2821045,5.2327499-4.9955292,5.2327499
				c-1.3567123,0-2.7349854-0.5391541-3.3594284-1.658638v5.3190155c0,0.6038589-0.4960251,1.1194839-1.1420288,1.1194839
				c-0.6028748,0-1.0763474-0.515625-1.0763474-1.1194839V82.3432846c0-0.6038513,0.4734726-1.1214447,1.0763474-1.1214447
				c0.6460037,0,1.1420288,0.5175934,1.1420288,1.1214447V82.8157806z M80.8429642,89.4699402
				c1.6802063,0,3.0153503-1.2057495,3.0153503-3.0565186c0-1.8743057-1.335144-3.1447525-3.0153503-3.1447525
				c-1.6370697,0-3.0575027,1.1841812-3.0575027,3.1447525C77.7854614,88.3935928,79.3137207,89.4699402,80.8429642,89.4699402z"/>
			<path class="st0" d="M97.1950684,87.1447144h-6.9992218c0.2156601,1.5508041,1.4645386,2.5193253,3.0800476,2.5193253
				c1.0547867,0,1.658638-0.3646698,2.3909073-0.9685211c0.3656464-0.3019257,0.9685211-0.4528885,1.420433-0.0862656
				c0.4097595,0.323494,0.4313278,0.9900894,0.043129,1.3998413c-1.0116501,1.0547867-2.4761887,1.5939407-3.9623032,1.5939407
				c-2.8643875,0-5.1680527-2.0899582-5.1680527-5.2758789c0-3.1878815,2.3036652-5.21315,5.1680527-5.21315
				c2.7996902,0,4.9533691,1.939003,5.0396347,5.0190506C98.207695,86.7133865,97.7342224,87.1447144,97.1950684,87.1447144z
				 M96.0324478,85.5292053c-0.2156601-1.5723724-1.3567123-2.4761963-2.8643875-2.4761963
				c-1.5508041,0-2.7565536,0.9253845-2.9722137,2.4761963H96.0324478z"/>
			<path class="st0" d="M108.271286,76.8733063c0-0.6038589,0.4960175-1.1214447,1.1420288-1.1214447
				c0.6028748,0,1.0763474,0.5175858,1.0763474,1.1214447v13.5024185c0,0.6018906-0.4734726,1.1194839-1.0763474,1.1194839
				c-0.6460114,0-1.1420288-0.5175934-1.1420288-1.1194839v-0.4528885c-0.6244431,1.0763474-2.0027237,1.6801987-3.359436,1.6801987
				c-2.7134171,0-5.0386505-2.0683975-5.0386505-5.2327499c0-3.2310104,2.2820969-5.256279,5.0170898-5.256279
				c1.4214096,0,2.7565536,0.5607224,3.3809967,1.6586456V76.8733063z M105.1706467,83.2686691
				c-1.6802063,0-3.0369186,1.2057495-3.0369186,3.0584869c0,1.8507767,1.3567123,3.1212234,3.0369186,3.1212234
				c1.6370773,0,3.079071-1.1626205,3.079071-3.1212234C108.2497177,84.3450241,106.6783218,83.2686691,105.1706467,83.2686691z"/>
			<path class="st0" d="M114.6097946,75.8596954c0.8185349,0,1.4645386,0.6038513,1.4645386,1.3998413
				c0,0.7979507-0.6460037,1.3998413-1.4645386,1.3998413c-0.7969742,0-1.4861069-0.6018906-1.4861069-1.3998413
				C113.1236877,76.4635468,113.8128204,75.8596954,114.6097946,75.8596954z M115.7302551,82.3432846
				c0-0.6038513-0.4960175-1.1214447-1.1420288-1.1214447c-0.6028748,0-1.0763474,0.5175934-1.0763474,1.1214447v8.0324402
				c0,0.6018906,0.4734726,1.1194839,1.0763474,1.1194839c0.6460114,0,1.1420288-0.5175934,1.1420288-1.1194839V82.3432846z"/>
			<path class="st0" d="M123.8077927,83.419632h-4.3926544c-0.5597382,0-1.0557632-0.4528885-1.0557632-1.0116501
				c0-0.6038513,0.4960251-1.0783081,1.0557632-1.0783081h6.524765c0.6891403,0,1.2067337,0.4528885,1.2067337,1.0136108v0.043129
				c0,0.4293671-0.1725311,0.79599-0.5175934,1.1626205l-5.4268494,5.7503357h5.018074
				c0.5597382,0,1.0547791,0.472496,1.0547791,1.076355c0,0.5587616-0.4950409,1.0116501-1.0547791,1.0116501h-7.0639191
				c-0.6891403,0-1.2057495-0.4528885-1.2057495-1.0116501v-0.0431366c0-0.4313202,0.1725311-0.7979507,0.5166092-1.1626129
				L123.8077927,83.419632z"/>
			<path class="st0" d="M130.7266235,75.8596954c0.8185425,0,1.4645538,0.6038513,1.4645538,1.3998413
				c0,0.7979507-0.6460114,1.3998413-1.4645538,1.3998413c-0.7969666,0-1.4860992-0.6018906-1.4860992-1.3998413
				C129.2405243,76.4635468,129.929657,75.8596954,130.7266235,75.8596954z M131.8470917,82.3432846
				c0-0.6038513-0.4960175-1.1214447-1.1420288-1.1214447c-0.6028748,0-1.076355,0.5175934-1.076355,1.1214447v8.0324402
				c0,0.6018906,0.4734802,1.1194839,1.076355,1.1194839c0.6460114,0,1.1420288-0.5175934,1.1420288-1.1194839V82.3432846z"/>
			<path class="st0" d="M134.2625122,86.3271561c0-3.1878815,2.3899231-5.21315,5.2327423-5.21315
				c2.8643951,0,5.2758942,2.0252686,5.2758942,5.21315c0,3.1859207-2.411499,5.2758789-5.2758942,5.2758789
				C136.6524353,91.603035,134.2625122,89.5130768,134.2625122,86.3271561z M142.5753021,86.3271561
				c0-1.8527374-1.3998413-3.0584869-3.0800476-3.0584869c-1.6586304,0-3.036911,1.2057495-3.036911,3.0584869
				c0,1.8939056,1.3782806,3.1212234,3.036911,3.1212234C141.1754608,89.4483795,142.5753021,88.2210617,142.5753021,86.3271561z"/>
			<path class="st0" d="M147.1894989,82.3432846c0-0.6038513,0.4950409-1.1214447,1.1410522-1.1214447
				c0.6028748,0,1.0773315,0.5175934,1.0773315,1.1214447v0.4940643c0.5813141-1.1626205,1.9595795-1.7233429,3.079071-1.7233429
				c2.4340363,0,3.8338776,1.5723801,3.8338776,4.4151993v4.8465195c0,0.6018906-0.4960175,1.1194839-1.1420288,1.1194839
				c-0.6028748,0-1.0763397-0.5175934-1.0763397-1.1194839V85.788002c0-1.5939407-0.8185425-2.4977646-2.1105499-2.4977646
				c-1.3135834,0-2.5840302,0.7097244-2.5840302,2.6918564v4.393631c0,0.6018906-0.4960175,1.1194839-1.1420288,1.1194839
				c-0.6028748,0-1.076355-0.5175934-1.076355-1.1194839V82.3432846z"/>
			<path class="st0" d="M167.8489685,87.1447144h-6.9992218c0.2156677,1.5508041,1.4645386,2.5193253,3.0800476,2.5193253
				c1.0547791,0,1.6586456-0.3646698,2.3909149-0.9685211c0.3656464-0.3019257,0.9685211-0.4528885,1.4204254-0.0862656
				c0.4097595,0.323494,0.4313202,0.9900894,0.0431366,1.3998413c-1.0116577,1.0547867-2.4761963,1.5939407-3.9623108,1.5939407
				c-2.8643799,0-5.168045-2.0899582-5.168045-5.2758789c0-3.1878815,2.3036652-5.21315,5.168045-5.21315
				c2.7996979,0,4.9533691,1.939003,5.0396423,5.0190506C168.8616028,86.7133865,168.3881226,87.1447144,167.8489685,87.1447144z
				 M166.6863556,85.5292053c-0.2156677-1.5723724-1.35672-2.4761963-2.8643951-2.4761963
				c-1.5508118,0-2.756546,0.9253845-2.9722137,2.4761963H166.6863556z"/>
			<path class="st0" d="M170.4614258,94.014534c-0.3450623,0-0.6460114-0.1725311-0.6460114-0.4960251
				c0-0.1490021-0.0215607-0.3430939,0.1931152-0.6018906c0.7107086-0.8606873,0.9694977-1.9174347,1.0773315-3.2957153
				c0.0431366-0.5803223,0.5597382-1.0332184,1.1410522-1.0332184c0.6891327,0,1.1841736,0.4960251,1.1841736,1.1410522v0.1293945
				C173.2826691,92.1186676,171.3005371,94.014534,170.4614258,94.014534z"/>
			<path class="st0" d="M184.0128479,90.3757248c0,0.6018906-0.4960175,1.1194839-1.1420288,1.1194839
				c-0.6028748,0-1.0763397-0.5175934-1.0763397-1.1194839V76.8733063c0-0.6038589,0.473465-1.1214447,1.0763397-1.1214447
				c0.6460114,0,1.1420288,0.5175858,1.1420288,1.1214447V90.3757248z"/>
			<path class="st0" d="M194.9557495,89.944397c-0.667572,1.0979156-2.1321106,1.658638-3.3809967,1.658638
				c-2.7134247,0-5.1033478-2.0468292-5.1033478-5.2543106c0-3.2094498,2.3899231-5.2347183,5.1033478-5.2347183
				c1.2057495,0,2.691864,0.4960251,3.3809967,1.6370773v-0.4077988c0-0.6038513,0.4744568-1.1214447,1.0773315-1.1214447
				c0.6460114,0,1.1410522,0.5175934,1.1410522,1.1214447v8.0324402c0,0.6018906-0.4950409,1.1194839-1.1410522,1.1194839
				c-0.6028748,0-1.0773315-0.5175934-1.0773315-1.1194839V89.944397z M191.8335571,89.4483795
				c1.6370697,0,3.1006317-1.1410522,3.1006317-3.1212234c0-1.982132-1.5929565-3.0584869-3.1006317-3.0584869
				c-1.6802063,0-3.0800476,1.2057495-3.0800476,3.0584869C188.7535095,88.1779327,190.1533508,89.4483795,191.8335571,89.4483795z"
				/>
			<path class="st0" d="M205.6261292,82.3432846c0-0.6038513,0.4950562-1.1214447,1.1410522-1.1214447
				c0.6028748,0,1.0773315,0.5175934,1.0773315,1.1214447v0.4940643c0.5813141-1.1626205,1.9595947-1.7233429,3.079071-1.7233429
				c2.4340363,0,3.8338928,1.5723801,3.8338928,4.4151993v4.8465195c0,0.6018906-0.4960327,1.1194839-1.1420288,1.1194839
				c-0.6028748,0-1.076355-0.5175934-1.076355-1.1194839V85.788002c0-1.5939407-0.8185425-2.4977646-2.1105499-2.4977646
				c-1.3135834,0-2.5840302,0.7097244-2.5840302,2.6918564v4.393631c0,0.6018906-0.4960175,1.1194839-1.1420288,1.1194839
				c-0.6028748,0-1.076355-0.5175934-1.076355-1.1194839V82.3432846z"/>
			<path class="st0" d="M217.0895691,86.3271561c0-3.1878815,2.3899231-5.21315,5.2327423-5.21315
				c2.8643951,0,5.2758942,2.0252686,5.2758942,5.21315c0,3.1859207-2.411499,5.2758789-5.2758942,5.2758789
				C219.4794922,91.603035,217.0895691,89.5130768,217.0895691,86.3271561z M225.402359,86.3271561
				c0-1.8527374-1.3998413-3.0584869-3.0800476-3.0584869c-1.6586304,0-3.036911,1.2057495-3.036911,3.0584869
				c0,1.8939056,1.3782806,3.1212234,3.036911,3.1212234C224.0025177,89.4483795,225.402359,88.2210617,225.402359,86.3271561z"/>
			<path class="st0" d="M230.0822296,88.1132278c0.5381775-0.2136993,0.9469604,0.0647049,1.1194916,0.4313278
				c0.4097595,0.7744217,1.1841736,1.2057495,2.1752472,1.2057495c1.0126343,0,1.743927-0.4509354,1.743927-1.2057495
				c0-0.6450272-0.6244507-0.9253845-1.35672-1.0979156l-1.3567047-0.323494
				c-2.1321106-0.5803299-2.9065399-1.7449036-2.7781219-3.3584518c0.1293945-1.4861069,1.7449036-2.6506882,3.5966492-2.6506882
				c1.3351593,0,2.5624695,0.4313278,3.2300415,1.4861145c0.3019257,0.5175858,0.1509552,1.0351791-0.1931152,1.2920074
				c-0.3666229,0.3019333-0.8185425,0.280365-1.2920227-0.1274338c-0.5607147-0.4960251-1.2067261-0.6901169-1.7233276-0.6901169
				c-0.5597382,0-1.1841888,0.1940918-1.3998413,0.5391541c-0.1725311,0.2783966-0.1941071,0.5587616-0.0862732,0.8606873
				c0.1293945,0.3881912,0.7322693,0.5822906,1.2704468,0.7312927l1.5508118,0.3881912
				c2.1752472,0.5391541,2.6271515,1.9605637,2.6271515,2.9722214c0,1.9389954-1.7007904,3.036911-4.0054321,3.036911
				c-1.5508118,0-3.1222076-0.8195114-3.6603699-2.2840576C229.3715363,88.7817841,229.6077728,88.285759,230.0822296,88.1132278z"
				/>
			<path class="st0" d="M240.3173676,83.1608429h-0.9910583c-0.4950409,0-0.9263763-0.3881912-0.9263763-0.8822556
				c0-0.5391541,0.4313354-0.9489136,0.9263763-0.9489136h0.9910583v-2.7996902c0-0.6018906,0.4734802-1.1194839,1.076355-1.1194839
				c0.6460114,0,1.1410522,0.5175934,1.1410522,1.1194839v2.7996902h1.3145599c0.4950409,0,0.9253845,0.4097595,0.9253845,0.9489136
				c0,0.4940643-0.4303436,0.8822556-0.9253845,0.8822556h-1.3145599v7.2148819
				c0,0.6018906-0.4950409,1.1194839-1.1410522,1.1194839c-0.6028748,0-1.076355-0.5175934-1.076355-1.1194839V83.1608429z"/>
			<path class="st0" d="M248.7840729,87.770134v2.6055908c0,0.6018906-0.4960175,1.1194839-1.1420288,1.1194839
				c-0.6028748,0-1.076355-0.5175934-1.076355-1.1194839v-8.0324402c0-0.6038513,0.4734802-1.1214447,1.076355-1.1214447
				c0.6460114,0,1.1420288,0.5175934,1.1420288,1.1214447v1.2920151c0.5166168-1.7880402,1.5066986-2.5212936,2.7565613-2.5212936
				c0.3225098,0,0.6460114,0.0215683,0.9469452,0.0862656c0.5597534,0.1294022,0.9263763,0.6901245,0.7969818,1.2704468
				c-0.1941071,0.9704819-1.1626129,0.7332535-1.8086243,0.7332535
				C249.5800629,83.2039719,248.7840729,85.0998383,248.7840729,87.770134z"/>
			<path class="st0" d="M262.6139221,89.944397c-0.667572,1.0979156-2.1321411,1.658638-3.381012,1.658638
				c-2.7134094,0-5.1033478-2.0468292-5.1033478-5.2543106c0-3.2094498,2.3899384-5.2347183,5.1033478-5.2347183
				c1.2067261,0,2.691864,0.4960251,3.381012,1.6370773v-0.4077988c0-0.6038513,0.4744568-1.1214447,1.0773315-1.1214447
				c0.6459961,0,1.1410522,0.5175934,1.1410522,1.1214447v8.0324402c0,0.6018906-0.4950562,1.1194839-1.1410522,1.1194839
				c-0.6028748,0-1.0773315-0.5175934-1.0773315-1.1194839V89.944397z M259.4916992,89.4483795
				c1.6361084,0,3.100647-1.1410522,3.100647-3.1212234c0-1.982132-1.5929565-3.0584869-3.100647-3.0584869
				c-1.6802063,0-3.0800476,1.2057495-3.0800476,3.0584869C256.4116516,88.1779327,257.8114929,89.4483795,259.4916992,89.4483795z"
				/>
			<path class="st0" d="M275.5036621,82.8373489c0.667572-1.3998489,2.3683472-1.7233429,3.1653137-1.7233429
				c1.5939636,0,2.6055908,0.7332535,3.1653442,2.0037003c0.947937-1.7449036,2.4555969-2.0037003,3.3819885-2.0037003
				c2.4761963,0,3.8760376,1.615509,3.8760376,4.4798965v4.7818222c0,0.6018906-0.4950562,1.1194839-1.1410522,1.1194839
				c-0.6038513,0-1.0773315-0.5175934-1.0773315-1.1194839V85.788002c0-1.5723801-0.8401184-2.4977646-2.1321106-2.4977646
				c-1.4645691,0-2.433075,1.076355-2.433075,2.6918564v4.393631c0,0.6018906-0.4960327,1.1194839-1.1420288,1.1194839
				c-0.6028748,0-1.076355-0.5175934-1.076355-1.1194839v-4.6308594c0-1.5508041-0.8616638-2.454628-2.0458374-2.454628
				c-1.2920227,0-2.5408936,0.7312927-2.5408936,2.6918564v4.393631c0,0.6018906-0.4960327,1.1194839-1.1420288,1.1194839
				c-0.6028748,0-1.076355-0.5175934-1.076355-1.1194839v-8.0324402c0-0.6038513,0.4950256-1.1214447,1.1410522-1.1214447
				c0.6028748,0,1.0773315,0.5175934,1.0773315,1.1214447V82.8373489z"/>
			<path class="st0" d="M293.0859985,75.8596954c0.8185425,0,1.4645386,0.6038513,1.4645386,1.3998413
				c0,0.7979507-0.6459961,1.3998413-1.4645386,1.3998413c-0.7969666,0-1.486084-0.6018906-1.486084-1.3998413
				C291.5999146,76.4635468,292.289032,75.8596954,293.0859985,75.8596954z M294.2064819,82.3432846
				c0-0.6038513-0.4960327-1.1214447-1.1420288-1.1214447c-0.6028748,0-1.076355,0.5175934-1.076355,1.1214447v8.0324402
				c0,0.6018906,0.4734802,1.1194839,1.076355,1.1194839c0.6459961,0,1.1420288-0.5175934,1.1420288-1.1194839V82.3432846z"/>
			<path class="st0" d="M297.2453613,88.1132278c0.5381775-0.2136993,0.9469299,0.0647049,1.1194763,0.4313278
				c0.4097595,0.7744217,1.1841736,1.2057495,2.1752319,1.2057495c1.0126343,0,1.743927-0.4509354,1.743927-1.2057495
				c0-0.6450272-0.6244202-0.9253845-1.3566895-1.0979156l-1.35672-0.323494
				c-2.1321106-0.5803299-2.9065552-1.7449036-2.7781372-3.3584518c0.1293945-1.4861069,1.7449036-2.6506882,3.5966797-2.6506882
				c1.335144,0,2.562439,0.4313278,3.230011,1.4861145c0.3019409,0.5175858,0.1509705,1.0351791-0.1931152,1.2920074
				c-0.3666077,0.3019333-0.818512,0.280365-1.2919922-0.1274338c-0.56073-0.4960251-1.2067261-0.6901169-1.7233582-0.6901169
				c-0.5597229,0-1.1841736,0.1940918-1.3998413,0.5391541c-0.1725159,0.2783966-0.1940918,0.5587616-0.0862732,0.8606873
				c0.129425,0.3881912,0.7322998,0.5822906,1.2704468,0.7312927l1.5508118,0.3881912
				c2.1752625,0.5391541,2.6271667,1.9605637,2.6271667,2.9722214c0,1.9389954-1.7007751,3.036911-4.0054321,3.036911
				c-1.5508118,0-3.1221924-0.8195114-3.6603699-2.2840576C296.5346375,88.7817841,296.7709045,88.285759,297.2453613,88.1132278z"
				/>
			<path class="st0" d="M306.7481995,88.1132278c0.5381775-0.2136993,0.9469604,0.0647049,1.1195068,0.4313278
				c0.4097595,0.7744217,1.1841736,1.2057495,2.1752319,1.2057495c1.0126343,0,1.743927-0.4509354,1.743927-1.2057495
				c0-0.6450272-0.6244507-0.9253845-1.35672-1.0979156l-1.3566895-0.323494
				c-2.1321106-0.5803299-2.9065552-1.7449036-2.7781372-3.3584518c0.1293945-1.4861069,1.7449036-2.6506882,3.5966492-2.6506882
				c1.3351746,0,2.5624695,0.4313278,3.2300415,1.4861145c0.3019409,0.5175858,0.1509705,1.0351791-0.1931152,1.2920074
				c-0.3666077,0.3019333-0.8185425,0.280365-1.2920227-0.1274338c-0.5606995-0.4960251-1.2067261-0.6901169-1.7233276-0.6901169
				c-0.5597229,0-1.1841736,0.1940918-1.3998413,0.5391541c-0.1725159,0.2783966-0.1940918,0.5587616-0.0862732,0.8606873
				c0.1293945,0.3881912,0.7322693,0.5822906,1.2704468,0.7312927l1.5508118,0.3881912
				c2.1752625,0.5391541,2.6271667,1.9605637,2.6271667,2.9722214c0,1.9389954-1.7008057,3.036911-4.0054321,3.036911
				c-1.5508118,0-3.1222229-0.8195114-3.6603699-2.2840576C306.0375061,88.7817841,306.2737427,88.285759,306.7481995,88.1132278z"
				/>
			<path class="st0" d="M317.2833252,75.8596954c0.8185425,0,1.4645386,0.6038513,1.4645386,1.3998413
				c0,0.7979507-0.6459961,1.3998413-1.4645386,1.3998413c-0.7969666,0-1.4861145-0.6018906-1.4861145-1.3998413
				C315.7972107,76.4635468,316.4863586,75.8596954,317.2833252,75.8596954z M318.4037781,82.3432846
				c0-0.6038513-0.4960327-1.1214447-1.1420288-1.1214447c-0.6028748,0-1.076355,0.5175934-1.076355,1.1214447v8.0324402
				c0,0.6018906,0.4734802,1.1194839,1.076355,1.1194839c0.6459961,0,1.1420288-0.5175934,1.1420288-1.1194839V82.3432846z"/>
			<path class="st0" d="M320.8191833,86.3271561c0-3.1878815,2.3899536-5.21315,5.2327576-5.21315
				c2.8643799,0,5.2758789,2.0252686,5.2758789,5.21315c0,3.1859207-2.411499,5.2758789-5.2758789,5.2758789
				C323.209137,91.603035,320.8191833,89.5130768,320.8191833,86.3271561z M329.1319885,86.3271561
				c0-1.8527374-1.3998413-3.0584869-3.0800476-3.0584869c-1.6586304,0-3.0368958,1.2057495-3.0368958,3.0584869
				c0,1.8939056,1.3782654,3.1212234,3.0368958,3.1212234C327.7321472,89.4483795,329.1319885,88.2210617,329.1319885,86.3271561z"
				/>
			<path class="st0" d="M333.7461853,82.3432846c0-0.6038513,0.4950562-1.1214447,1.1410522-1.1214447
				c0.6028748,0,1.0773315,0.5175934,1.0773315,1.1214447v0.4940643c0.5812988-1.1626205,1.9595947-1.7233429,3.079071-1.7233429
				c2.4340515,0,3.8338928,1.5723801,3.8338928,4.4151993v4.8465195c0,0.6018906-0.4960327,1.1194839-1.1420288,1.1194839
				c-0.6028748,0-1.076355-0.5175934-1.076355-1.1194839V85.788002c0-1.5939407-0.8185425-2.4977646-2.1105652-2.4977646
				c-1.3135681,0-2.5840149,0.7097244-2.5840149,2.6918564v4.393631c0,0.6018906-0.4960327,1.1194839-1.1420288,1.1194839
				c-0.6028748,0-1.076355-0.5175934-1.076355-1.1194839V82.3432846z"/>
			<path class="st0" d="M354.4056702,87.1447144h-6.9992371c0.2156677,1.5508041,1.4645386,2.5193253,3.0800476,2.5193253
				c1.0547791,0,1.6586304-0.3646698,2.3908997-0.9685211c0.3656616-0.3019257,0.9685364-0.4528885,1.4204407-0.0862656
				c0.4097595,0.323494,0.4313354,0.9900894,0.0431213,1.3998413c-1.0116272,1.0547867-2.4761658,1.5939407-3.9622803,1.5939407
				c-2.8644104,0-5.1680603-2.0899582-5.1680603-5.2758789c0-3.1878815,2.3036499-5.21315,5.1680603-5.21315
				c2.7996826,0,4.9533691,1.939003,5.0396118,5.0190506C355.4182739,86.7133865,354.9448242,87.1447144,354.4056702,87.1447144z
				 M353.243042,85.5292053c-0.2156677-1.5723724-1.35672-2.4761963-2.8643799-2.4761963
				c-1.5508118,0-2.7565613,0.9253845-2.972229,2.4761963H353.243042z"/>
		</g>
	</g>
	<path class="st1" d="M438.8492737,34.3628197h-63.7333374c-2.3682556,0-4.2881165-1.9198532-4.2881165-4.2881107V4.3014722
		c0-2.3682585,1.9198608-4.2881117,4.2881165-4.2881117h63.7333374c2.3682556,0,4.2881165,1.9198529,4.2881165,4.2881117v25.7732372
		C443.1373901,32.4429665,441.2175293,34.3628197,438.8492737,34.3628197z"/>
	<g>
		<path class="st0" d="M376.2511902,23.9142532c-0.3381653,0.3469048-0.5094604,0.7698288-0.5094604,1.2556686
			c0,0.4849644,0.1712952,0.9078903,0.5094604,1.2556667c0.3399048,0.350399,0.7593384,0.5277824,1.2469177,0.5277824
			c0.4867249,0,0.9096375-0.1765099,1.2582703-0.5251617c0.3486633-0.34865,0.525177-0.7715759,0.525177-1.2582874
			c0-0.487587-0.1765137-0.9113865-0.524292-1.2582893C378.0608521,23.2134571,376.9266357,23.2143307,376.2511902,23.9142532z"/>
		<path class="st0" d="M386.5097351,11.250104c1.0162354-0.6038036,2.1443176-0.9096375,3.3528137-0.9096375
			c0.9489441,0,1.8620911,0.2009764,2.7149353,0.5976868c0.8528137,0.3958368,1.6007996,0.9646883,2.2220764,1.6899519
			c0.26828,0.3128242,0.6379089,0.471858,1.0966492,0.471858c0.4141846,0,0.7689514-0.1441793,1.0555725-0.4299154
			c0.2857361-0.2848625,0.4299011-0.6405039,0.4299011-1.0555639c0-0.3713703-0.139801-0.7217684-0.4220581-1.0485744
			c-0.9061279-0.9786682-1.981781-1.7554874-3.1981506-2.3077364c-1.2198181-0.5539961-2.5322876-0.8353634-3.8989258-0.8353634
			c-1.7537537,0-3.3930359,0.4404011-4.870636,1.3080959c-1.4767456,0.8685684-2.6651306,2.0613213-3.5319519,3.545927
			c-0.8685608,1.4872274-1.3081055,3.1299925-1.3081055,4.8837318c0,1.7546139,0.4395447,3.3973789,1.3081055,4.8837337
			c0.8668213,1.4854794,2.0552063,2.6782322,3.5319519,3.545927c1.4776001,0.8685684,3.1159973,1.3089695,4.870636,1.3089695
			c1.3666382,0,2.6791077-0.2813683,3.8989258-0.8353634c1.2181091-0.553997,2.2937622-1.3308163,3.2033997-2.3147278
			c0.2770081-0.3198147,0.4168091-0.6702137,0.4168091-1.0415821c0-0.4141884-0.144165-0.7689552-0.4299011-1.0564384
			c-0.2866211-0.2848625-0.6413879-0.4290428-1.0555725-0.4290428c-0.4587402,0-0.8283691,0.1590347-1.0966492,0.471859
			c-0.6212769,0.7252636-1.3683777,1.2888718-2.2203369,1.6750965c-0.8528442,0.3888454-1.7668457,0.585453-2.7166748,0.585453
			c-1.2084961,0-2.3365784-0.3058338-3.3528137-0.9096375c-1.0188904-0.6038036-1.8376465-1.4356728-2.4344482-2.4728851
			c-0.5950623-1.0363407-0.8973999-2.1845303-0.8973999-3.4113617s0.3023376-2.3793879,0.8982849-3.4244671
			C384.6720886,12.6901455,385.4908447,11.8539076,386.5097351,11.250104z"/>
		<path class="st0" d="M412.7983398,8.730032c-1.4950867-0.8676953-3.1430969-1.3072224-4.8959656-1.3072224
			c-1.7537231,0-3.4017334,0.439527-4.8968506,1.3072224c-1.4942017,0.8676949-2.6965637,2.0604467-3.5738831,3.545927
			c-0.8764343,1.4872265-1.3211975,3.1308661-1.3211975,4.8846054c0,1.7546139,0.4447632,3.3982544,1.3211975,4.8846073
			c0.8773193,1.4863529,2.0796814,2.6791058,3.5738831,3.545927c1.4951172,0.8676949,3.1422424,1.3080959,4.8968506,1.3080959
			c1.7537537,0,3.4008789-0.4404011,4.8959656-1.3080959c1.4950867-0.8668213,2.6974487-2.0595741,3.5738831-3.545927
			c0.8773193-1.4872284,1.3220825-3.130867,1.3220825-4.8846073c0-1.7528648-0.4447632-3.3965044-1.3220825-4.8846054
			C415.4957886,10.7904787,414.2934265,9.5977268,412.7983398,8.730032z M414.6683044,17.1605644
			c0,1.2268314-0.3067017,2.3741474-0.9096375,3.4096127c-0.6064453,1.0380878-1.4339294,1.869957-2.4615479,2.4737606
			c-1.0267029,0.6038036-2.1687927,0.910511-3.3947449,0.910511c-1.2268372,0-2.3688965-0.3067074-3.3947449-0.910511
			c-1.0284729-0.6046772-1.8568726-1.4365463-2.4615479-2.4737606c-0.6037903-1.0354652-0.9104919-2.1827812-0.9104919-3.4096127
			s0.3067017-2.373271,0.9104919-3.4087381c0.6046753-1.0372143,1.4339294-1.8743258,2.4624023-2.488615
			c1.0267334-0.6125422,2.1688232-0.9227448,3.3938904-0.9227448c1.2242126,0,2.366272,0.3102026,3.3938904,0.9227448
			c1.0275879,0.6134157,1.855957,1.4505272,2.4624023,2.488615
			C414.3616028,14.7872934,414.6683044,15.9346075,414.6683044,17.1605644z"/>
		<path class="st0" d="M435.7795715,8.136714c-0.4674683-0.4666157-1.1708984-0.5880756-1.7659607-0.26127
			c-0.2131958,0.1170907-0.38797,0.2647653-0.5225525,0.4447703l-5.6238403,7.9176054l-5.6369629-7.9350815
			c-0.3407898-0.4045753-0.7549744-0.6090469-1.2329407-0.6090469c-0.4150696,0-0.7750549,0.1494217-1.0695496,0.4438963
			c-0.2944641,0.2944746-0.4438782,0.6536112-0.4438782,1.0686712v15.9094868c0,0.4133129,0.1494141,0.7733231,0.4438782,1.0686703
			c0.5889587,0.5889492,1.5492859,0.5889492,2.1382141,0c0.2944946-0.2944736,0.4439087-0.6536102,0.4439087-1.0686703V13.6155119
			l4.2082825,5.9401712c0.3040771,0.34865,0.6903076,0.5251598,1.1490479,0.5251598s0.8449707-0.1765099,1.1665344-0.5470066
			l4.1637268-5.9139557v11.4958649c0,0.4133129,0.1494141,0.7733231,0.4438782,1.0686703
			c0.2944946,0.2944756,0.6545105,0.4438972,1.0695496,0.4438972c0.4150696,0,0.7742004-0.1494217,1.0686646-0.4438972
			c0.2944946-0.2944736,0.4439087-0.6536102,0.4439087-1.0686703V9.2062588
			C436.2234802,8.7903242,436.0740662,8.4311876,435.7795715,8.136714z"/>
	</g>
</g>
</svg>
