<svg width="24" height="24" fill="none" xmlns="http://www.w3.org/2000/svg"><path d="M7.653 4.174h8.695m1.739 0h3.478v17.391H2.435V4.175h15.652z" stroke="#708C91" stroke-linecap="round" stroke-linejoin="round"/><path clip-rule="evenodd" d="M5.913 2.435h1.74v3.478h-1.74V2.435zm10.435 0h1.739v3.478h-1.74V2.435h.001zM2.435 9.39h19.13-19.13v0zm3.478 3.48h1.74v.87h-1.74v-.87zm5.217 0h1.74v.87h-1.74v-.87zm-5.217 4.347h1.74v.87h-1.74v-.87zm5.217 0h1.74v.87h-1.74v-.87zm5.218-4.347h1.739v.87h-1.74v-.87h.001z" stroke="#708C91" stroke-linecap="round" stroke-linejoin="round"/><path d="M5.913 12.87h1.74v.87h-1.74v-.87zm5.217 0h1.74v.87h-1.74v-.87zm-5.217 4.347h1.74v.87h-1.74v-.87zm5.217 0h1.74v.87h-1.74v-.87zm5.218-4.347h1.739v.87h-1.74v-.87h.001z" fill="#708C91"/></svg>