<svg width="20" height="20" fill="none" xmlns="http://www.w3.org/2000/svg"><path d="M10 0C4.486 0 0 4.486 0 10s4.486 10 10 10 10-4.486 10-10S15.514 0 10 0zm0 19.13C4.965 19.13.87 15.035.87 10 .87 4.965 4.965.87 10 .87c5.035 0 9.13 4.095 9.13 9.13 0 5.035-4.095 9.13-9.13 9.13z" fill="#008FC1"/><path d="M11.74 13.913h-1.305V9.131A.435.435 0 0010 8.696H8.26a.435.435 0 000 .87h1.305v4.347H8.261a.435.435 0 000 .87h3.478a.435.435 0 000-.87zM10 6.522a.87.87 0 100-1.74.87.87 0 000 1.74z" fill="#008FC1"/></svg>