<svg height="32" viewBox="0 0 166 32" width="166" xmlns="http://www.w3.org/2000/svg"><g fill="none" fill-rule="evenodd"><path d="m86.211 27.1573c-4.48 0-6.657-3.482-6.657-7.016 0-3.64 2.31-7.336 6.794-7.336 4.445 0 6.832 3.697 6.832 7.331 0 4.608-3.513 7.021-6.969 7.021m11.549-18.647h-4.025c-.369 0-.574.164-.574.575v1.149c-1.837-1.492-4.231-2.329-6.753-2.329-3.133 0-6.22 1.271-8.481 3.531-2.135 2.135-3.531 5.153-3.531 8.819 0 3.413 1.165 6.393 3.269 8.498 2.03 2.031 4.937 3.246 8.515 3.246 2.998 0 5.338-.78 6.981-1.889v.937c0 .328.205.574.574.574h4.025c.451 0 .574-.246.574-.574v-21.962c0-.329-.164-.575-.574-.575m18.201-.124c-2.382 0-3.696.288-5.174.616-1.478.329-3.12 1.273-3.12 1.273v-1.189c0-.329-.247-.575-.576-.575h-3.983c-.411 0-.575.287-.575.575v21.961c0 .369.205.574.575.574h3.983c.452 0 .576-.369.576-.574v-9.027c0-3.164.706-5.351 2.102-6.748 1.394-1.394 3.477-1.999 6.233-1.999.287 0 .574-.247.574-.575v-3.696s-.04-.616-.615-.616m-42.871 18.234h-13.222l12.61-13.444c.288-.307.448-.711.448-1.132v-2.999c0-.288-.206-.534-.534-.534h-18.601c-.329 0-.575.164-.575.534v3.911c0 .245.205.574.534.574.328 0 11.575-.006 11.575-.006l-12.967 13.723c-.266.283-.415.657-.415 1.046v2.754c0 .287.247.574.575.574h20.531c.41 0 .574-.287.574-.574v-3.852c0-.411-.205-.575-.533-.575m-35.57.537c-4.48 0-6.657-3.482-6.657-7.016 0-3.64 2.311-7.336 6.794-7.336 4.445 0 6.832 3.697 6.832 7.331 0 4.608-3.513 7.021-6.969 7.021m11.549-18.647h-4.025c-.369 0-.574.164-.574.575v1.149c-1.837-1.492-4.232-2.329-6.753-2.329-3.132 0-6.22 1.271-8.481 3.531-2.134 2.135-3.531 5.153-3.531 8.819 0 3.413 1.164 6.393 3.269 8.498 2.031 2.031 4.936 3.246 8.515 3.246 2.997 0 5.338-.78 6.981-1.889v.937c0 .328.205.574.574.574h4.025c.451 0 .575-.246.575-.574v-21.962c0-.329-.165-.575-.575-.575m-37.156 18.544c-4.51 0-6.787-3.568-6.787-7.123 0-3.53 2.246-7.048 6.781-7.048 4.484 0 6.7 3.543 6.7 7.083 0 4.732-3.34 7.088-6.694 7.088m.036-19.149c-4.434 0-6.816 1.59-6.816 1.59v-8.879c0-.37-.206-.616-.616-.616h-3.942c-.452 0-.575.246-.575.575v30.47c0 .33.205.576.575.576h3.983c.369 0 .575-.252.575-.577v-1.098s2.34 2.052 6.816 2.052c3.403 0 6.405-1.136 8.533-3.264 2.053-2.054 3.292-5.032 3.292-8.807 0-3.784-1.057-6.854-3.147-8.945-1.976-1.976-4.875-3.077-8.678-3.077" fill="#fff"/><path d="m118.5801 23.7159c1.963 0 3.915 1.55 3.915 3.952 0 2.17-1.652 3.953-3.915 3.953-2.184 0-3.989-1.745-3.989-3.953 0-2.237 1.816-3.952 3.989-3.952zm18.1963-6.6435c1.773.716 3.884 1.696 5.292 3.104 1.083 1.083 1.765 2.445 1.765 4.623 0 2.082-.681 3.686-1.841 4.847-1.598 1.598-4.105 2.354-6.996 2.354-2.479 0-4.534-.28-8.4-1.755-.079-.03-.133-.109-.133-.194v-5.5c0-.092.103-.147.182-.1 2.764 1.647 4.287 2.314 6.44 2.314 1.35 0 2.144-.303 2.56-.719.272-.272.383-.592.383-.909 0-.424-.201-.842-.482-1.124-.594-.593-1.842-1.24-4.243-2.3-1.201-.557-2.295-1.263-3.167-2.126-1.251-1.239-2.044-2.801-2.044-4.709 0-1.59.644-3.18 1.903-4.44 1.502-1.502 3.88-2.533 7.087-2.533 2.748 0 5.556.788 7.499 1.82.062.034.101.1.101.171v5.407c0 .074-.084.116-.145.078-1.107-.691-1.269-.836-2.265-1.304-1.134-.529-2.596-.937-3.995-.937-.921 0-1.551.248-1.924.621-.286.287-.422.646-.422 1.025 0 .381.174.735.522 1.063.347.327 1.121.736 2.323 1.223zm29.1875 14.2129c.096.146-.009.339-.184.339h-7.485c-.073 0-.142-.036-.183-.098l-5.745-10.286v10.177c0 .114-.092.207-.207.207h-5.966c-.113 0-.206-.093-.206-.207v-31.201c0-.119.097-.216.216-.216h5.947c.12 0 .216.097.216.216v17.57l5.984-8.743c.035-.052.093-.083.156-.083h7.121c.15 0 .24.167.158.293l-6.566 10.066z" fill="#9c3"/></g></svg>