<svg id="Camada_1" data-name="Camada 1" xmlns="http://www.w3.org/2000/svg" viewBox="0 0 146 72"><defs><style>.cls-1{fill:red;}.cls-2{fill:#000;}</style></defs><path class="cls-1" d="M7.07,61.8438,6.8256,63.715a1.5544,1.5544,0,0,0,1.5549,1.7392H69.291a1.5622,1.5622,0,0,0,1.5677-1.7392l-.25-1.8712a2.6849,2.6849,0,0,1,2.3659-2.9453,2.6383,2.6383,0,0,1,2.9072,2.3628l.2345,1.824c.4742,4.0756-1.8346,7.6506-5.9509,7.6506H7.5137c-4.1194,0-6.4279-3.575-5.9521-7.6506l.2357-1.824a2.6369,2.6369,0,0,1,2.897-2.3628A2.6871,2.6871,0,0,1,7.07,61.8438"/><path class="cls-2" d="M63.374,47.7144A5,5,0,0,0,68.64,42.7253c-.063-2.91-2.7068-4.79-5.6641-4.7928H57.0174a2.4764,2.4764,0,0,1,0-4.951H60.995c2.6877-.1083,4.7561-1.7393,4.888-4.2747.13-2.7229-2.2092-4.7664-5.0667-4.7664H51.1486l-.0366,23.774H63.374m7.3267-19.028a7.8666,7.8666,0,0,1-2.3292,5.6154l-.1493.1728.202.12a9.7315,9.7315,0,0,1,5.0432,8.1363A9.9636,9.9636,0,0,1,63.4,52.8615H48.6848a2.6232,2.6232,0,0,1-2.5909-2.6556V21.66a2.6216,2.6216,0,0,1,2.5851-2.6614l12.152.0353a9.5978,9.5978,0,0,1,9.87,9.653"/><path class="cls-2" d="M23.2612,43.08l.07.2018.07-.2018c.6793-1.8827,1.5051-3.9673,2.3834-6.2333q1.3482-3.5793,2.6876-6.8482c.9092-2.2075,1.761-4.1752,2.5794-5.8967a19.7323,19.7323,0,0,1,2.0131-3.616,3.9485,3.9485,0,0,1,3.1926-1.4519h.61a2.8932,2.8932,0,0,1,1.9209.6145,2.1711,2.1711,0,0,1,.7654,1.3177l3.8034,29.5036a2.4345,2.4345,0,0,1-.6486,1.7861,2.6123,2.6123,0,0,1-1.8518.6061,2.9706,2.9706,0,0,1-1.9135-.5651,2.0387,2.0387,0,0,1-.8885-1.4727c-.1332-.9866-.2444-2.07-.3659-3.2706-.1639-1.1914-.757-6.3355-.9281-7.6386-.1538-1.3349-1.2223-9.6676-1.5884-12.6981l-.032-.2575-1.2182,2.5589c-.4158.8815-.8637,1.9326-1.3554,3.1621-.4891,1.2355-.9841,2.5324-1.4715,3.9056-.5283,1.3264-2.8839,8.0634-2.8839,8.0634-.2165.6058-.6368,1.8417-1.0085,2.963-.3793,1.1272-.7292,2.149-.8257,2.3394a3.4174,3.4174,0,0,1-6.0856,0c-.098-.19-.4448-1.2122-.8272-2.3394-.3774-1.1213-.7786-2.3572-1.0156-2.963,0,0-2.3512-6.737-2.8753-8.0634-.4934-1.3732-.9851-2.67-1.4771-3.9056-.4933-1.23-.9412-2.2806-1.3423-3.1621l-1.2253-2.5589-.028.2575C11.13,30.2469,10.067,38.58,9.9045,39.9145c-.1686,1.3031-.7613,6.4472-.9238,7.6386-.1172,1.2-.2473,2.284-.3706,3.2706a2.0592,2.0592,0,0,1-.8871,1.4727,2.9853,2.9853,0,0,1-1.9176.5651A2.5944,2.5944,0,0,1,3.96,52.2554a2.4637,2.4637,0,0,1-.6545-1.7861L7.1083,20.9657a2.1772,2.1772,0,0,1,.77-1.3177,2.877,2.877,0,0,1,1.919-.6145h.61a3.929,3.929,0,0,1,3.1885,1.4519,19.361,19.361,0,0,1,2.0159,3.616q1.2294,2.5822,2.5751,5.8967,1.35,3.2672,2.6994,6.8482c.8725,2.266,1.6967,4.3506,2.3745,6.2333"/><path class="cls-1" d="M15.8011,1.1648H62.0623c4.358,0,6.5275,3.27,7.0413,7.5831l.1946,1.3848a2.7044,2.7044,0,0,1-2.39,2.963,2.6645,2.6645,0,0,1-2.9208-2.4009l-.1844-1.3176c-.1946-1.6394-.8841-2.9043-2.5517-2.9043H16.6192c-1.6686,0-2.36,1.2649-2.5557,2.9043l-.1845,1.3176a2.6573,2.6573,0,0,1-2.9234,2.4009,2.6988,2.6988,0,0,1-2.3862-2.963l.1945-1.3848c.5154-4.3127,2.6791-7.5831,7.0372-7.5831"/><path class="cls-2" d="M99.0142,32.2583c-.3206,1.23-.65,2.5559-.9984,3.9555-.347,1.3964-.6938,2.7491-1.0335,4.0258-.3411,1.28-.6545,2.3948-.9618,3.3641a11.2113,11.2113,0,0,1-.7612,1.9851,1.9814,1.9814,0,0,1-1.8914.9426,3.9078,3.9078,0,0,1-.9852-.1494,1.6731,1.6731,0,0,1-1.0131-.8607,12.0953,12.0953,0,0,1-.7567-2.0846c-.3031-1.0364-.6237-2.2192-.9619-3.5689s-.6718-2.7726-1.0144-4.2807c-.3368-1.5048-.6441-2.9042-.9091-4.1985-.2693-1.2853-.5022-2.3949-.682-3.2938-.1758-.9164-.2783-1.4579-.3031-1.64a1.744,1.744,0,0,1-.0336-.2341V26.09a1.1286,1.1286,0,0,1,.44-.9283,1.63,1.63,0,0,1,1.0836-.3513,1.7255,1.7255,0,0,1,.9807.2575,1.4381,1.4381,0,0,1,.5342.8872c0,.044.063.3747.1832.9809.1286.6.2869,1.3792.48,2.3188.1948.94.4056,1.994.64,3.168.2387,1.1711.4829,2.3538.748,3.56.2563,1.1944.5183,2.3481.7789,3.478.2561,1.1243.4947,2.0936.7231,2.8987.2225-.7642.47-1.6337.7435-2.6145.2711-.9749.5433-1.988.8126-3.0274q.4042-1.5677.7744-3.13.3691-1.5764.6967-2.919c.21-.8988.397-1.6921.5535-2.3861.1582-.7.2812-1.2122.3733-1.5546a1.8506,1.8506,0,0,1,.64-1.01,1.8029,1.8029,0,0,1,1.1491-.3717,1.8829,1.8829,0,0,1,1.2209.3894,1.7837,1.7837,0,0,1,.6.9926c.2606,1.095.5257,2.3274.8185,3.6949.29,1.35.5958,2.7229.9075,4.1194q.483,2.09.98,4.096c.3438,1.338.6657,2.5237.988,3.5485.2241-.8049.4684-1.7655.7274-2.89.2579-1.133.5169-2.2777.7835-3.4782.2752-1.1827.5357-2.3628.7785-3.5281.2549-1.168.4788-2.2162.6824-3.1531.2033-.9252.3657-1.6894.4845-2.2719.1274-.5859.19-.8931.19-.9108a1.4285,1.4285,0,0,1,.5387-.8872,1.715,1.715,0,0,1,.9807-.2575,1.6466,1.6466,0,0,1,1.082.3513,1.1323,1.1323,0,0,1,.4405.9283v.1316a1.499,1.499,0,0,1-.0322.2341c-.0177.1817-.13.7232-.3264,1.64-.1829.8989-.4188,2.0085-.6866,3.2938-.28,1.2943-.5769,2.6878-.9165,4.1842-.3338,1.49-.6719,2.91-.9923,4.2569-.3295,1.3468-.6444,2.5385-.95,3.5572a11.6978,11.6978,0,0,1-.7628,2.0672,1.799,1.799,0,0,1-1.0247.8958,3.67,3.67,0,0,1-.997.1815,2.7228,2.7228,0,0,1-.4071-.0321,3.3876,3.3876,0,0,1-.5809-.132,2.11,2.11,0,0,1-.5972-.3189,1.5073,1.5073,0,0,1-.48-.5943,14.9417,14.9417,0,0,1-.7247-2.12q-.4281-1.4756-.9149-3.3494c-.3221-1.2473-.647-2.553-.9618-3.9143-.3089-1.3558-.6089-2.6325-.8769-3.8122"/><path class="cls-2" d="M116.6909,40.304q-.5134,1.6164-.8958,2.9921c-.265.9195-.5007,1.6778-.7277,2.26a1.5123,1.5123,0,0,1-2.9758-.3982,1.2963,1.2963,0,0,1,.0686-.4419c.041-.1349.1816-.5975.4215-1.3821.2345-.7846.5477-1.7566.93-2.9307.3793-1.1683.8066-2.4476,1.2676-3.8324q.6921-2.0952,1.4349-4.1284.74-2.0466,1.4565-3.806a23.9279,23.9279,0,0,1,1.3117-2.8548,1.5611,1.5611,0,0,1,.7276-.7759,3.2547,3.2547,0,0,1,1.24-.1961,3.2144,3.2144,0,0,1,1.2676.2314,1.372,1.372,0,0,1,.7216.8137c.3194.6676.7,1.5752,1.1344,2.7084.4393,1.13.902,2.36,1.3822,3.6742.4917,1.3147.9648,2.6587,1.4406,4.02.4728,1.37.9106,2.6467,1.3041,3.8264.394,1.1771.7319,2.1871,1.01,3.0189.2766.8313.4583,1.3671.5241,1.6132a1.4133,1.4133,0,0,1,.0688.4419,1.3,1.3,0,0,1-.4086.9867,1.6063,1.6063,0,0,1-1.1767.3865,1.2839,1.2839,0,0,1-.8713-.2519,1.7192,1.7192,0,0,1-.4506-.7231c-.2228-.5825-.49-1.3408-.8-2.26-.2986-.9191-.6236-1.9145-.9588-2.9921h-8.4468m7.5027-2.9309c-.48-1.461-.9252-2.8047-1.3556-4.0229-.4273-1.2265-.871-2.3862-1.3175-3.49-.1143-.2461-.2314-.53-.3529-.8668-.1274-.3134-.199-.5123-.2179-.5739a2.5236,2.5236,0,0,0-.2168.5449c-.1331.351-.2458.65-.36.8958-.45,1.1035-.8857,2.2632-1.3075,3.49-.4128,1.2182-.8592,2.5619-1.3276,4.0229Z"/><path class="cls-2" d="M135.65,38.0464a3.31,3.31,0,0,1-.322-.3717c-.1-.1316-.2125-.2957-.3264-.4683-.3178-.4452-.6485-.9927-1.0263-1.6336-.3747-.6443-.7453-1.3238-1.1171-2.0352-.3687-.7259-.7288-1.452-1.073-2.1781-.3544-.7321-.6719-1.4056-.9471-2.0321-.2869-.6323-.5256-1.18-.7291-1.6337a6.85,6.85,0,0,1-.3733-.966,1.9945,1.9945,0,0,1-.0834-.2548c-.0014-.0558-.0191-.1376-.0191-.2518a1.3523,1.3523,0,0,1,.4173-1.0041,1.6119,1.6119,0,0,1,1.1741-.4071,1.21,1.21,0,0,1,.9618.3367,2.2939,2.2939,0,0,1,.4185.6763c.0471.1143.1553.357.3265.7349.1655.3834.3747.855.6223,1.4141.2474.5622.5313,1.18.8416,1.8535.3251.679.6384,1.3381.9679,1.9937.3249.6413.644,1.2679.944,1.8679a13.9846,13.9846,0,0,0,.8638,1.4669,23.9585,23.9585,0,0,0,1.3848-2.471q.7443-1.4755,1.4171-2.9189c.4522-.9664.8389-1.8241,1.1727-2.5563.3219-.7525.5138-1.2091.5912-1.3848a2.2926,2.2926,0,0,1,.4233-.6763,1.1739,1.1739,0,0,1,.9543-.3367,1.5855,1.5855,0,0,1,1.17.4071,1.3228,1.3228,0,0,1,.42,1.0041,1.5313,1.5313,0,0,1-.0146.2518c-.0148.0585-.0439.1406-.0819.2548-.0675.1785-.1979.5008-.3865.9777-.1889.4716-.432,1.0277-.7175,1.6484-.2823.63-.5914,1.3089-.9368,2.0348-.3571.7351-.7175,1.4523-1.0832,2.1814-.3779.7115-.7439,1.3995-1.1157,2.0525-.3687.647-.7174,1.2061-1.0319,1.651a5.3248,5.3248,0,0,1-.6458.7729v6.9685a1.48,1.48,0,0,1-.4215,1.1009,1.5224,1.5224,0,0,1-2.6189-1.1009V38.0464"/></svg>