
<svg width="46" height="46" viewBox="0 0 46 46" fill="none" xmlns="http://www.w3.org/2000/svg">
<g clip-path="url(#clip0)">
<path d="M35.7864 12.616C35.5955 12.4957 35.4381 12.3269 35.3292 12.126C35.2203 11.925 35.1637 11.6987 35.1649 11.4688C34.5452 5.09639 29.3315 0 23.0001 0C16.6688 0 11.3315 4.96954 10.8354 11.4688C10.8217 11.6953 10.7589 11.9158 10.6518 12.1142C10.5446 12.3127 10.3956 12.4841 10.2157 12.616C7.11179 14.9086 5.00195 18.606 5.00195 22.8088C5.00195 28.5432 8.85093 33.5127 14.0647 34.9156C14.9333 35.1711 15.9274 35.298 16.1745 35.0424C16.796 34.66 17.6647 31.4738 17.2921 30.8377C17.0431 30.4534 16.2981 30.0728 15.3058 29.8173C12.202 28.9256 9.96671 26.1218 9.96671 22.6819C9.96671 20.7699 10.7118 19.1133 11.8294 17.7124C12.333 17.068 12.9691 16.5456 13.6921 16.1827C15.0569 15.4179 15.802 14.017 15.802 12.4873C15.802 11.7224 15.9255 10.9576 16.1745 10.1947C17.1686 7.26405 19.7745 5.09828 23.002 5.09828C26.2294 5.09828 28.8372 7.26405 29.8294 10.1947C30.0765 10.9595 30.202 11.7243 30.202 12.4873C30.202 14.017 30.9452 15.4179 32.3118 16.1827C33.0569 16.5651 33.553 17.0744 34.1745 17.7124C35.3658 19.0798 36.0284 20.8475 36.0372 22.6819C36.0357 24.6413 35.277 26.5201 33.9274 27.9058C32.5779 29.2915 30.7478 30.0708 28.839 30.0728C24.245 30.0728 20.645 33.897 20.645 38.611V43.4537C20.645 44.3454 20.7686 45.3639 21.0175 45.6195C21.5155 46.1306 24.7429 46.1306 25.2372 45.6195C25.4862 45.3639 25.6116 44.3454 25.6116 43.4537V38.4842C25.6116 36.7008 27.0999 35.1711 28.839 35.1711C35.5411 35.1711 41.0038 29.5636 41.0038 22.6838C41.0001 18.6041 38.8884 14.9086 35.7864 12.616Z" fill="#72EF36"/>
</g>
<defs>
<clipPath id="clip0">
<rect width="46" height="46" fill="white"/>
</clipPath>
</defs>
</svg>
