<svg width="188" height="46" viewBox="0 0 188 46" fill="none" xmlns="http://www.w3.org/2000/svg">
<g clip-path="url(#clip0)">
<path d="M99.0052 18.5741H95.7481C95.4874 18.5741 95.3574 18.7035 95.3574 18.9625V25.1846C95.3574 28.5549 94.1846 30.2401 91.7089 30.2401C90.7968 30.2401 90.0151 29.981 89.494 29.333C88.9726 28.6849 88.7119 27.9072 88.7119 26.8704V19.0925C88.7119 18.8335 88.5819 18.7041 88.3212 18.7041H85.0638C84.8031 18.7041 84.6731 18.8335 84.6731 19.0925V27.7772C84.6731 29.5923 85.1941 31.1475 86.3666 32.3145C87.4091 33.4813 88.8426 34 90.6668 34C92.491 34 93.9242 33.4813 95.097 32.4439C95.227 32.3145 95.3577 32.4439 95.3577 32.5732V33.0919C95.3577 33.351 95.4877 33.4803 95.7484 33.4803H99.0058C99.2662 33.4803 99.3962 33.351 99.3962 33.0919V18.8328C99.3959 18.7038 99.2662 18.5741 99.0052 18.5741ZM121.286 18.0554C118.941 18.0554 117.117 18.8331 115.814 20.5186C114.641 18.9625 113.078 18.0554 110.862 18.0554C109.169 18.0554 107.736 18.5735 106.693 19.4812C106.563 19.6105 106.432 19.4812 106.432 19.3518V18.8331C106.432 18.5741 106.302 18.4448 106.041 18.4448H102.915C102.654 18.4448 102.524 18.5741 102.524 18.8331V32.9629C102.524 33.222 102.654 33.3513 102.915 33.3513H106.172C106.433 33.3513 106.563 33.222 106.563 32.9629V26.2221C106.563 24.6666 106.824 23.6298 107.475 22.8524C108.126 22.0741 108.908 21.6857 109.95 21.6857C110.732 21.6857 111.514 21.9447 112.036 22.5928C112.557 23.1115 112.818 23.8892 112.818 24.926V32.9629C112.818 33.2226 112.948 33.3513 113.208 33.3513H116.466C116.726 33.3513 116.856 33.2223 116.856 32.9629V26.2221C116.856 24.6666 117.117 23.6298 117.768 22.8524C118.42 22.0741 119.201 21.6857 120.244 21.6857C121.026 21.6857 121.808 21.9447 122.329 22.5928C122.85 23.1115 123.111 23.8892 123.111 24.926V32.9629C123.111 33.2226 123.241 33.3513 123.501 33.3513H126.629C126.889 33.3513 127.019 33.2223 127.019 32.9629V24.0185C127.019 22.2034 126.498 20.7776 125.325 19.7409C124.153 18.7038 122.85 18.0554 121.286 18.0554ZM140.31 29.8517C140.18 29.5926 140.05 29.5926 139.789 29.5926C139.007 29.981 138.356 30.1114 137.704 30.1114C136.271 30.1114 135.489 29.2036 135.489 27.5182V22.0744C135.489 21.8147 135.619 21.6854 135.88 21.6854H140.049C140.31 21.6854 140.44 21.556 140.44 21.297V18.8338C140.44 18.5748 140.31 18.4454 140.049 18.4454H135.88C135.619 18.4454 135.489 18.3161 135.489 18.0564V14.2974C135.489 14.0384 135.359 13.9084 135.099 13.9084H131.841C131.58 13.9084 131.45 14.0384 131.45 14.2974V18.0564C131.45 18.3161 131.32 18.4454 131.059 18.4454H128.584C128.323 18.4454 128.193 18.5748 128.193 18.8338V21.297C128.193 21.556 128.323 21.6854 128.584 21.6854H131.059C131.32 21.6854 131.45 21.8147 131.45 22.0744V27.9072C131.45 29.8517 131.972 31.4071 133.014 32.3149C134.057 33.3516 135.49 33.7406 137.314 33.7406C138.487 33.7406 139.66 33.4816 140.962 32.8336C141.092 32.7036 141.223 32.5739 141.092 32.4445L140.31 29.8517ZM153.992 18.3144H153.21C151.125 18.3144 149.562 19.0922 148.259 20.7776C148.128 20.907 147.998 20.7776 147.998 20.6483V18.9628C147.998 18.7038 147.737 18.4448 147.476 18.4448H144.48C144.219 18.4448 144.089 18.5738 144.089 18.8331V32.9623C144.089 33.2219 144.219 33.3513 144.48 33.3513H147.737C147.998 33.3513 148.128 33.2219 148.128 32.9623V28.5552C148.128 24.2776 149.952 22.2037 153.47 22.2037H153.991C154.121 22.2037 154.382 22.0744 154.382 21.8147L154.512 18.7041C154.383 18.5741 154.252 18.4448 153.992 18.3144ZM163.243 18.0554C161.028 18.0554 159.204 18.8331 157.77 20.2589C156.337 21.6847 155.555 23.6292 155.555 25.9624C155.555 28.2962 156.337 30.111 157.77 31.5368C159.204 32.9619 161.028 33.7403 163.243 33.7403C164.937 33.7403 166.37 33.3513 167.673 32.5736C168.846 31.9255 169.628 30.8888 170.28 29.5923C170.41 29.3327 170.28 29.2033 170.019 29.0736L167.153 28.4256C167.022 28.4256 166.892 28.4256 166.762 28.5549C165.98 29.7217 164.807 30.3701 163.244 30.3701C162.332 30.3701 161.55 30.111 160.898 29.463C160.247 28.9443 159.855 28.1665 159.595 27.1291C159.595 26.9998 159.595 26.8701 159.725 26.8701H170.8V25.5737C170.67 23.3702 169.888 21.555 168.454 20.1292C167.022 18.8331 165.328 18.0554 163.243 18.0554ZM166.501 24.2776H159.855C159.725 24.2776 159.595 24.1482 159.725 24.0185C159.986 23.2408 160.376 22.7221 161.028 22.2034C161.68 21.6854 162.462 21.5554 163.243 21.5554C164.025 21.5554 164.807 21.8144 165.459 22.2034C165.98 22.5924 166.501 23.2408 166.761 24.0185C166.761 24.1482 166.631 24.2776 166.501 24.2776ZM176.925 26.9998H188V25.7034C187.87 23.4998 187.088 21.6847 185.654 20.2589C184.22 18.8331 182.397 18.1848 180.442 18.1848C178.227 18.1848 176.403 18.9625 174.969 20.3889C173.536 21.814 172.754 23.7585 172.754 26.0924C172.754 28.4256 173.536 30.2397 174.969 31.6655C176.403 33.0913 178.227 33.8697 180.442 33.8697C182.136 33.8697 183.569 33.4813 184.872 32.7029C186.045 32.0549 186.827 31.0181 187.478 29.7217C187.609 29.462 187.478 29.3326 187.218 29.203L184.352 28.5549C184.222 28.5549 184.091 28.5549 183.961 28.6843C183.179 29.851 182.007 30.4994 180.443 30.4994C179.531 30.4994 178.749 30.2397 178.097 29.5923C177.446 29.0736 177.055 28.2959 176.794 27.2585C176.664 27.1295 176.795 26.9998 176.925 26.9998ZM176.925 24.0185C177.185 23.2408 177.576 22.7221 178.228 22.2034C178.88 21.6854 179.661 21.5554 180.443 21.5554C181.225 21.5554 182.007 21.8144 182.658 22.2034C183.179 22.5924 183.7 23.2408 183.961 24.0185C183.961 24.1479 183.961 24.2776 183.831 24.2776H177.186C176.925 24.2776 176.795 24.1482 176.925 24.0185ZM81.9361 21.685H71.6422C71.3815 21.685 71.2515 21.8144 71.2515 22.0741V25.0553C71.2515 25.3143 71.3815 25.4437 71.6422 25.4437H78.1573C78.2873 25.4437 78.4177 25.5737 78.2873 25.7034C77.8966 26.9991 77.2449 28.0365 76.2024 28.8139C75.1599 29.5917 73.8568 29.98 72.2936 29.98C70.469 29.98 68.9058 29.3326 67.6027 28.0356C66.2995 26.7391 65.6481 25.1843 65.6481 23.3695C65.6481 21.5547 66.2995 19.9992 67.4727 18.7028C68.6451 17.4057 70.339 16.7583 72.1632 16.7583C74.5089 16.7583 76.3328 17.6654 77.6359 19.3505C77.7663 19.4805 77.8966 19.4805 78.1573 19.4805L80.8936 17.6654C81.0237 17.5361 81.154 17.277 81.0237 17.1467C80.3478 16.0653 79.4061 15.1731 78.2873 14.5545C76.5934 13.5171 74.5085 12.999 72.4239 12.999C69.4269 12.999 66.9513 14.0358 64.9967 15.9803C62.9118 17.9248 62 20.3873 62 23.3692C62 26.3504 63.0425 28.8136 65.1271 30.7581C67.212 32.7019 69.6876 33.7393 72.6846 33.7393C75.6813 33.7393 78.027 32.7019 79.9815 30.7581C81.9361 28.8136 82.8479 26.3504 82.8479 23.3692V21.9434C82.3268 21.9447 82.1965 21.685 81.9361 21.685Z" fill="#F0ECE6"/>
</g>
<g clip-path="url(#clip1)">
<path d="M35.7864 12.616C35.5955 12.4957 35.4381 12.3269 35.3292 12.126C35.2203 11.925 35.1637 11.6987 35.1649 11.4688C34.5452 5.09639 29.3315 0 23.0001 0C16.6688 0 11.3315 4.96954 10.8354 11.4688C10.8217 11.6953 10.7589 11.9158 10.6518 12.1142C10.5446 12.3127 10.3956 12.4841 10.2157 12.616C7.11179 14.9086 5.00195 18.606 5.00195 22.8088C5.00195 28.5432 8.85093 33.5127 14.0647 34.9156C14.9333 35.1711 15.9274 35.298 16.1745 35.0424C16.796 34.66 17.6647 31.4738 17.2921 30.8377C17.0431 30.4534 16.2981 30.0728 15.3058 29.8173C12.202 28.9256 9.96671 26.1218 9.96671 22.6819C9.96671 20.7699 10.7118 19.1133 11.8294 17.7124C12.333 17.068 12.9691 16.5456 13.6921 16.1827C15.0569 15.4179 15.802 14.017 15.802 12.4873C15.802 11.7224 15.9255 10.9576 16.1745 10.1947C17.1686 7.26405 19.7745 5.09828 23.002 5.09828C26.2294 5.09828 28.8372 7.26405 29.8294 10.1947C30.0765 10.9595 30.202 11.7243 30.202 12.4873C30.202 14.017 30.9452 15.4179 32.3118 16.1827C33.0569 16.5651 33.553 17.0744 34.1745 17.7124C35.3658 19.0798 36.0284 20.8475 36.0372 22.6819C36.0357 24.6413 35.277 26.5201 33.9274 27.9058C32.5779 29.2915 30.7478 30.0708 28.839 30.0728C24.245 30.0728 20.645 33.897 20.645 38.611V43.4537C20.645 44.3454 20.7686 45.3639 21.0175 45.6195C21.5155 46.1306 24.7429 46.1306 25.2372 45.6195C25.4862 45.3639 25.6116 44.3454 25.6116 43.4537V38.4842C25.6116 36.7008 27.0999 35.1711 28.839 35.1711C35.5411 35.1711 41.0038 29.5636 41.0038 22.6838C41.0001 18.6041 38.8884 14.9086 35.7864 12.616Z" fill="#72EF36"/>
</g>
<defs>
<clipPath id="clip0">
<rect width="126" height="21" fill="white" transform="translate(62 13)"/>
</clipPath>
<clipPath id="clip1">
<rect width="46" height="46" fill="white"/>
</clipPath>
</defs>
</svg>
